<mxfile host="app.diagrams.net" modified="2020-07-18T14:13:07.336Z" agent="5.0 (Windows NT 10.0; WOW64) AppleWebKit/537.36 (KHTML, like Gecko) Chrome/83.0.4103.116 Safari/537.36" etag="cHFdmxnZ_7gkdeF2fDqd" version="13.4.6" type="github" pages="2">
  <diagram id="6a731a19-8d31-9384-78a2-239565b7b9f0" name="1、智能运维整体架构图">
    <mxGraphModel dx="1221" dy="682" grid="1" gridSize="10" guides="1" tooltips="1" connect="1" arrows="1" fold="1" page="1" pageScale="1" pageWidth="1169" pageHeight="827" background="#003469" math="0" shadow="0">
      <root>
        <mxCell id="0" />
        <mxCell id="1" parent="0" />
        <mxCell id="2019" value="" style="rounded=1;whiteSpace=wrap;html=1;dashed=1;strokeColor=none;strokeWidth=2;fillColor=#E6E6E6;fontFamily=Verdana;fontSize=12;fontColor=#00BEF2" parent="1" vertex="1">
          <mxGeometry x="40" y="120" width="165" height="670" as="geometry" />
        </mxCell>
        <mxCell id="2020" value="" style="rounded=1;whiteSpace=wrap;html=1;dashed=1;strokeColor=none;strokeWidth=2;fillColor=#E6E6E6;fontFamily=Verdana;fontSize=12;fontColor=#00BEF2" parent="1" vertex="1">
          <mxGeometry x="220" y="120" width="165" height="670" as="geometry" />
        </mxCell>
        <mxCell id="2021" value="" style="rounded=1;whiteSpace=wrap;html=1;dashed=1;strokeColor=none;strokeWidth=2;fillColor=#E6E6E6;fontFamily=Verdana;fontSize=12;fontColor=#00BEF2" parent="1" vertex="1">
          <mxGeometry x="400" y="120" width="165" height="670" as="geometry" />
        </mxCell>
        <mxCell id="2022" value="" style="rounded=1;whiteSpace=wrap;html=1;dashed=1;strokeColor=none;strokeWidth=2;fillColor=#E6E6E6;fontFamily=Verdana;fontSize=12;fontColor=#00BEF2" parent="1" vertex="1">
          <mxGeometry x="580" y="120" width="165" height="670" as="geometry" />
        </mxCell>
        <mxCell id="2023" value="" style="rounded=1;whiteSpace=wrap;html=1;dashed=1;strokeColor=none;strokeWidth=2;fillColor=#E6E6E6;fontFamily=Verdana;fontSize=12;fontColor=#00BEF2" parent="1" vertex="1">
          <mxGeometry x="760" y="120" width="165" height="670" as="geometry" />
        </mxCell>
        <mxCell id="2024" value="" style="rounded=1;whiteSpace=wrap;html=1;dashed=1;strokeColor=none;strokeWidth=2;fillColor=#E6E6E6;fontFamily=Verdana;fontSize=12;fontColor=#00BEF2" parent="1" vertex="1">
          <mxGeometry x="940" y="120" width="165" height="670" as="geometry" />
        </mxCell>
        <mxCell id="2025" value="数据源" style="whiteSpace=wrap;html=1;dashed=1;strokeColor=none;strokeWidth=2;fillColor=#3399FF;fontFamily=Helvetica;fontSize=18;fontColor=#FFFFFF;fontStyle=1" parent="1" vertex="1">
          <mxGeometry x="40" y="120" width="165" height="60" as="geometry" />
        </mxCell>
        <mxCell id="2026" value="数据采集" style="whiteSpace=wrap;html=1;dashed=1;strokeColor=none;strokeWidth=2;fillColor=#3399FF;fontFamily=Helvetica;fontSize=18;fontColor=#FFFFFF;fontStyle=1" parent="1" vertex="1">
          <mxGeometry x="220" y="120" width="165" height="60" as="geometry" />
        </mxCell>
        <mxCell id="2027" value="数据存储" style="whiteSpace=wrap;html=1;dashed=1;strokeColor=none;strokeWidth=2;fillColor=#3399FF;fontFamily=Helvetica;fontSize=18;fontColor=#FFFFFF;fontStyle=1" parent="1" vertex="1">
          <mxGeometry x="400" y="120" width="165" height="60" as="geometry" />
        </mxCell>
        <mxCell id="2028" value="&lt;span&gt;数据ETL&lt;/span&gt;" style="whiteSpace=wrap;html=1;dashed=1;strokeColor=none;strokeWidth=2;fillColor=#3399FF;fontFamily=Helvetica;fontSize=18;fontColor=#FFFFFF;fontStyle=1" parent="1" vertex="1">
          <mxGeometry x="580" y="120" width="165" height="60" as="geometry" />
        </mxCell>
        <mxCell id="2029" value="数据分析引擎" style="whiteSpace=wrap;html=1;dashed=1;strokeColor=none;strokeWidth=2;fillColor=#3399FF;fontFamily=Helvetica;fontSize=18;fontColor=#FFFFFF;fontStyle=1" parent="1" vertex="1">
          <mxGeometry x="760" y="120" width="165" height="60" as="geometry" />
        </mxCell>
        <mxCell id="2030" value="可视化" style="whiteSpace=wrap;html=1;dashed=1;strokeColor=none;strokeWidth=2;fillColor=#3399FF;fontFamily=Helvetica;fontSize=18;fontColor=#FFFFFF;fontStyle=1" parent="1" vertex="1">
          <mxGeometry x="940" y="120" width="165" height="60" as="geometry" />
        </mxCell>
        <mxCell id="2031" value="" style="shape=mxgraph.arrows.two_way_arrow_horizontal;html=1;verticalLabelPosition=bottom;verticalAlign=top;strokeWidth=2;strokeColor=none;dashed=1;fillColor=#FFFFFF;fontFamily=Verdana;fontSize=12;fontColor=#00BEF2" parent="1" vertex="1">
          <mxGeometry x="180" y="131" width="67" height="39" as="geometry" />
        </mxCell>
        <mxCell id="2032" value="" style="shape=mxgraph.arrows.two_way_arrow_horizontal;html=1;verticalLabelPosition=bottom;verticalAlign=top;strokeWidth=2;strokeColor=none;dashed=1;fillColor=#FFFFFF;fontFamily=Verdana;fontSize=12;fontColor=#00BEF2" parent="1" vertex="1">
          <mxGeometry x="360" y="131" width="67" height="39" as="geometry" />
        </mxCell>
        <mxCell id="2033" value="" style="shape=mxgraph.arrows.two_way_arrow_horizontal;html=1;verticalLabelPosition=bottom;verticalAlign=top;strokeWidth=2;strokeColor=none;dashed=1;fillColor=#FFFFFF;fontFamily=Verdana;fontSize=12;fontColor=#00BEF2" parent="1" vertex="1">
          <mxGeometry x="540" y="131" width="67" height="39" as="geometry" />
        </mxCell>
        <mxCell id="2034" value="" style="shape=mxgraph.arrows.two_way_arrow_horizontal;html=1;verticalLabelPosition=bottom;verticalAlign=top;strokeWidth=2;strokeColor=none;dashed=1;fillColor=#FFFFFF;fontFamily=Verdana;fontSize=12;fontColor=#00BEF2" parent="1" vertex="1">
          <mxGeometry x="720" y="131" width="67" height="39" as="geometry" />
        </mxCell>
        <mxCell id="2035" value="" style="shape=mxgraph.arrows.two_way_arrow_horizontal;html=1;verticalLabelPosition=bottom;verticalAlign=top;strokeWidth=2;strokeColor=none;dashed=1;fillColor=#FFFFFF;fontFamily=Verdana;fontSize=12;fontColor=#00BEF2" parent="1" vertex="1">
          <mxGeometry x="900" y="131" width="67" height="39" as="geometry" />
        </mxCell>
        <mxCell id="2036" value="" style="verticalLabelPosition=bottom;html=1;verticalAlign=top;strokeColor=none;fillColor=#003366;shape=mxgraph.azure.cloud_service;dashed=1;fontFamily=Helvetica;fontSize=18;fontColor=#FFFFFF;opacity=25" parent="1" vertex="1">
          <mxGeometry x="90" y="180" width="970" height="600" as="geometry" />
        </mxCell>
        <mxCell id="2037" value="" style="verticalLabelPosition=bottom;html=1;verticalAlign=top;strokeColor=none;fillColor=#3399FF;shape=mxgraph.azure.tablet;dashed=1;fontFamily=Helvetica;fontSize=14;fontColor=#004C99" parent="1" vertex="1">
          <mxGeometry x="66" y="401" width="50" height="37.5" as="geometry" />
        </mxCell>
        <mxCell id="2038" value="" style="verticalLabelPosition=bottom;html=1;verticalAlign=top;strokeColor=none;fillColor=#3399FF;shape=mxgraph.azure.mobile;dashed=1;fontFamily=Helvetica;fontSize=14;fontColor=#004C99" parent="1" vertex="1">
          <mxGeometry x="146" y="395" width="35" height="50" as="geometry" />
        </mxCell>
        <mxCell id="2039" value="sys log" style="verticalLabelPosition=bottom;html=1;verticalAlign=top;strokeColor=none;fillColor=#3399FF;shape=mxgraph.azure.laptop;dashed=1;fontFamily=Helvetica;fontSize=14;fontColor=#004C99" parent="1" vertex="1">
          <mxGeometry x="96" y="451" width="50" height="30" as="geometry" />
        </mxCell>
        <mxCell id="2040" value="app log" style="verticalLabelPosition=bottom;html=1;verticalAlign=top;strokeColor=none;fillColor=#3399FF;shape=mxgraph.azure.mobile_services;dashed=1;fontFamily=Helvetica;fontSize=14;fontColor=#004C99" parent="1" vertex="1">
          <mxGeometry x="107" y="250" width="32.5" height="50" as="geometry" />
        </mxCell>
        <mxCell id="2041" value="Social" style="verticalLabelPosition=bottom;html=1;verticalAlign=top;strokeColor=none;fillColor=#3399FF;shape=mxgraph.azure.user;dashed=1;fontSize=14;fontColor=#004C99" parent="1" vertex="1">
          <mxGeometry x="92" y="680" width="47.5" height="50" as="geometry" />
        </mxCell>
        <mxCell id="2042" value="" style="verticalLabelPosition=bottom;html=1;verticalAlign=top;strokeColor=none;fillColor=#3399FF;shape=mxgraph.azure.github_code;dashed=1;fontSize=14;fontColor=#004C99" parent="1" vertex="1">
          <mxGeometry x="133" y="560" width="50" height="50" as="geometry" />
        </mxCell>
        <mxCell id="2043" value="" style="verticalLabelPosition=bottom;html=1;verticalAlign=top;strokeColor=none;fillColor=#3399FF;shape=mxgraph.azure.dropbox_code_source;dashed=1;fontSize=14;fontColor=#004C99" parent="1" vertex="1">
          <mxGeometry x="73" y="563" width="50" height="47.5" as="geometry" />
        </mxCell>
        <mxCell id="2044" value="Repositories" style="text;html=1;strokeColor=none;fillColor=none;align=center;verticalAlign=middle;whiteSpace=wrap;overflow=hidden;dashed=1;fontSize=14;fontColor=#004C99" parent="1" vertex="1">
          <mxGeometry x="60" y="620" width="120" height="20" as="geometry" />
        </mxCell>
        <mxCell id="2045" value="Azure Website" style="verticalLabelPosition=bottom;html=1;verticalAlign=top;strokeColor=none;fillColor=#3399FF;shape=mxgraph.azure.azure_website;dashed=1;fontSize=14;fontColor=#004C99" parent="1" vertex="1">
          <mxGeometry x="278" y="258" width="50" height="50" as="geometry" />
        </mxCell>
        <mxCell id="2046" value="Mobile Services" style="verticalLabelPosition=bottom;html=1;verticalAlign=top;strokeColor=none;fillColor=#3399FF;shape=mxgraph.azure.mobile_services;dashed=1;fontSize=14;fontColor=#004C99" parent="1" vertex="1">
          <mxGeometry x="287" y="661" width="32.5" height="50" as="geometry" />
        </mxCell>
        <mxCell id="2047" value="智能运维架构图" style="text;html=1;strokeColor=none;fillColor=none;align=center;verticalAlign=middle;whiteSpace=wrap;overflow=hidden;dashed=1;fontSize=36;fontColor=#FFFFFF;fontFamily=Helvetica;fontStyle=1" parent="1" vertex="1">
          <mxGeometry x="40" y="50" width="1060" height="50" as="geometry" />
        </mxCell>
        <mxCell id="2048" value="&lt;font color=&quot;#0000cc&quot;&gt;离线数据存储&lt;/font&gt;" style="rounded=1;whiteSpace=wrap;html=1;dashed=1;strokeColor=none;strokeWidth=2;fillColor=#FFFFFF;fontFamily=Helvetica;fontSize=14;fontColor=#FFB366;opacity=75;verticalAlign=top;fontStyle=1" parent="1" vertex="1">
          <mxGeometry x="410" y="190" width="140" height="260" as="geometry" />
        </mxCell>
        <mxCell id="2049" value="&lt;font color=&quot;#6666ff&quot; style=&quot;font-size: 19px&quot;&gt;在线数据计算&lt;/font&gt;" style="rounded=1;whiteSpace=wrap;html=1;dashed=1;strokeColor=none;strokeWidth=2;fillColor=#FFFFFF;fontFamily=Helvetica;fontSize=14;fontColor=#FFB366;opacity=75;verticalAlign=top;fontStyle=1" parent="1" vertex="1">
          <mxGeometry x="413" y="460" width="140" height="320" as="geometry" />
        </mxCell>
        <mxCell id="2052" value="SQL Database" style="verticalLabelPosition=bottom;html=1;verticalAlign=top;strokeColor=none;fillColor=#3399FF;shape=mxgraph.azure.sql_database;dashed=1;fontFamily=Helvetica;fontSize=14;fontColor=#004C99" parent="1" vertex="1">
          <mxGeometry x="464" y="600" width="37.5" height="50" as="geometry" />
        </mxCell>
        <mxCell id="2053" value="Tables" style="verticalLabelPosition=bottom;html=1;verticalAlign=top;strokeColor=none;fillColor=#3399FF;shape=mxgraph.azure.storage_table;dashed=1;fontFamily=Helvetica;fontSize=14;fontColor=#004C99" parent="1" vertex="1">
          <mxGeometry x="458" y="689" width="50" height="45" as="geometry" />
        </mxCell>
        <mxCell id="2055" value="Storage Management" style="rounded=1;whiteSpace=wrap;html=1;dashed=1;strokeColor=none;strokeWidth=2;fillColor=#FFFFFF;fontFamily=Helvetica;fontSize=14;fontColor=#FFB366;opacity=75;verticalAlign=top;fontStyle=1" parent="1" vertex="1">
          <mxGeometry x="594" y="240" width="140" height="280" as="geometry" />
        </mxCell>
        <mxCell id="2056" value="Storage Servers" style="verticalLabelPosition=bottom;html=1;verticalAlign=top;strokeColor=none;fillColor=#3399FF;shape=mxgraph.azure.server_rack;dashed=1;fontFamily=Helvetica;fontSize=14;fontColor=#004C99" parent="1" vertex="1">
          <mxGeometry x="639" y="316" width="50" height="50" as="geometry" />
        </mxCell>
        <mxCell id="2057" value="Database" style="verticalLabelPosition=bottom;html=1;verticalAlign=top;strokeColor=none;fillColor=#3399FF;shape=mxgraph.azure.database;dashed=1;fontFamily=Helvetica;fontSize=14;fontColor=#004C99" parent="1" vertex="1">
          <mxGeometry x="644" y="414" width="37.5" height="50" as="geometry" />
        </mxCell>
        <mxCell id="2058" value="Physical&lt;div&gt;Data Storage&lt;/div&gt;" style="verticalLabelPosition=bottom;html=1;verticalAlign=top;strokeColor=none;fillColor=#3399FF;shape=mxgraph.azure.vhd;dashed=1;fontFamily=Helvetica;fontSize=14;fontColor=#004C99" parent="1" vertex="1">
          <mxGeometry x="643" y="590" width="40" height="50" as="geometry" />
        </mxCell>
        <mxCell id="2059" value="Identity" style="rounded=1;whiteSpace=wrap;html=1;dashed=1;strokeColor=none;strokeWidth=2;fillColor=#FFFFFF;fontFamily=Helvetica;fontSize=14;fontColor=#FFB366;opacity=75;verticalAlign=top;fontStyle=1" parent="1" vertex="1">
          <mxGeometry x="773" y="196" width="140" height="134" as="geometry" />
        </mxCell>
        <mxCell id="2060" value="SPL数据分析" style="verticalLabelPosition=bottom;html=1;verticalAlign=top;strokeColor=none;fillColor=#3399FF;shape=mxgraph.azure.azure_active_directory;dashed=1;fontFamily=Helvetica;fontSize=14;fontColor=#004C99" parent="1" vertex="1">
          <mxGeometry x="819" y="225" width="47.5" height="50" as="geometry" />
        </mxCell>
        <mxCell id="2061" value="Performance" style="rounded=1;whiteSpace=wrap;html=1;dashed=1;strokeColor=none;strokeWidth=2;fillColor=#FFFFFF;fontFamily=Helvetica;fontSize=14;fontColor=#FFB366;opacity=75;verticalAlign=top;fontStyle=1" parent="1" vertex="1">
          <mxGeometry x="774" y="341" width="140" height="199" as="geometry" />
        </mxCell>
        <mxCell id="2062" value="业务拓扑及调用链" style="verticalLabelPosition=bottom;html=1;verticalAlign=top;strokeColor=none;fillColor=#3399FF;shape=mxgraph.azure.azure_cache;dashed=1;fontFamily=Helvetica;fontSize=14;fontColor=#004C99" parent="1" vertex="1">
          <mxGeometry x="821" y="376" width="45" height="50" as="geometry" />
        </mxCell>
        <mxCell id="2063" value="Content&amp;nbsp;&lt;div&gt;Delivery Network&lt;/div&gt;" style="verticalLabelPosition=bottom;html=1;verticalAlign=top;strokeColor=none;fillColor=#3399FF;shape=mxgraph.azure.content_delivery_network;dashed=1;fontFamily=Helvetica;fontSize=14;fontColor=#004C99" parent="1" vertex="1">
          <mxGeometry x="819" y="455" width="50" height="32.5" as="geometry" />
        </mxCell>
        <mxCell id="2064" value="Messaging" style="rounded=1;whiteSpace=wrap;html=1;dashed=1;strokeColor=none;strokeWidth=2;fillColor=#FFFFFF;fontFamily=Helvetica;fontSize=14;fontColor=#FFB366;opacity=75;verticalAlign=top;fontStyle=1" parent="1" vertex="1">
          <mxGeometry x="773" y="550" width="140" height="229" as="geometry" />
        </mxCell>
        <mxCell id="2065" value="Queues" style="verticalLabelPosition=bottom;html=1;verticalAlign=top;strokeColor=none;fillColor=#3399FF;shape=mxgraph.azure.queue_generic;dashed=1;fontFamily=Helvetica;fontSize=14;fontColor=#004C99" parent="1" vertex="1">
          <mxGeometry x="820" y="576" width="50" height="15" as="geometry" />
        </mxCell>
        <mxCell id="2066" value="机器学习" style="verticalLabelPosition=bottom;html=1;verticalAlign=top;strokeColor=none;fillColor=#3399FF;shape=mxgraph.azure.service_bus;dashed=1;fontFamily=Helvetica;fontSize=14;fontColor=#004C99" parent="1" vertex="1">
          <mxGeometry x="824" y="624" width="45" height="50" as="geometry" />
        </mxCell>
        <mxCell id="2067" value="Media Services" style="verticalLabelPosition=bottom;html=1;verticalAlign=top;strokeColor=none;fillColor=#3399FF;shape=mxgraph.azure.media_service;dashed=1;fontFamily=Helvetica;fontSize=14;fontColor=#004C99" parent="1" vertex="1">
          <mxGeometry x="821" y="703" width="45" height="50" as="geometry" />
        </mxCell>
        <mxCell id="2068" value="Cloud&lt;div&gt;Services&lt;/div&gt;" style="rounded=1;whiteSpace=wrap;html=1;dashed=1;strokeColor=none;strokeWidth=2;fillColor=#FFFFFF;fontFamily=Helvetica;fontSize=14;fontColor=#FFB366;opacity=75;verticalAlign=top;fontStyle=1" parent="1" vertex="1">
          <mxGeometry x="233" y="397" width="140" height="223" as="geometry" />
        </mxCell>
        <mxCell id="2069" value="Cloud" style="verticalLabelPosition=bottom;html=1;verticalAlign=top;strokeColor=none;fillColor=#3399FF;shape=mxgraph.azure.cloud;dashed=1;fontSize=14;fontColor=#004C99" parent="1" vertex="1">
          <mxGeometry x="278" y="449" width="50" height="32.5" as="geometry" />
        </mxCell>
        <mxCell id="2070" value="Virtual Machine" style="verticalLabelPosition=bottom;html=1;verticalAlign=top;strokeColor=none;fillColor=#3399FF;shape=mxgraph.azure.virtual_machine;dashed=1;fontSize=14;fontColor=#004C99" parent="1" vertex="1">
          <mxGeometry x="278" y="536" width="50" height="40" as="geometry" />
        </mxCell>
        <mxCell id="2071" value="Web Dashboards" style="verticalLabelPosition=bottom;html=1;verticalAlign=top;strokeColor=none;fillColor=#3399FF;shape=mxgraph.azure.laptop;dashed=1;fontFamily=Helvetica;fontSize=14;fontColor=#004C99" parent="1" vertex="1">
          <mxGeometry x="998" y="301" width="50" height="30" as="geometry" />
        </mxCell>
        <mxCell id="2072" value="Certificates" style="verticalLabelPosition=bottom;html=1;verticalAlign=top;strokeColor=none;fillColor=#3399FF;shape=mxgraph.azure.certificate;dashed=1;fontFamily=Helvetica;fontSize=14;fontColor=#004C99" parent="1" vertex="1">
          <mxGeometry x="998" y="399" width="50" height="40" as="geometry" />
        </mxCell>
        <mxCell id="2073" value="Enterprise&lt;div&gt;Services&lt;/div&gt;" style="verticalLabelPosition=bottom;html=1;verticalAlign=top;strokeColor=none;fillColor=#3399FF;shape=mxgraph.azure.enterprise;dashed=1;fontFamily=Helvetica;fontSize=14;fontColor=#004C99" parent="1" vertex="1">
          <mxGeometry x="1010" y="518" width="28" height="52" as="geometry" />
        </mxCell>
        <mxCell id="2074" value="Seminars" style="verticalLabelPosition=bottom;html=1;verticalAlign=top;strokeColor=none;fillColor=#3399FF;shape=mxgraph.azure.user;dashed=1;fontFamily=Helvetica;fontSize=14;fontColor=#004C99" parent="1" vertex="1">
          <mxGeometry x="1001" y="630" width="47.5" height="50" as="geometry" />
        </mxCell>
        <mxCell id="2075" value="" style="arrow;html=1;endArrow=block;endFill=1;strokeColor=none;strokeWidth=4;fontFamily=Helvetica;fontSize=36;fontColor=#FFB366;fillColor=#FFB366;" parent="1" edge="1">
          <mxGeometry width="100" height="100" relative="1" as="geometry">
            <mxPoint x="167" y="283" as="sourcePoint" />
            <mxPoint x="247" y="283" as="targetPoint" />
          </mxGeometry>
        </mxCell>
        <mxCell id="2076" value="" style="arrow;html=1;endArrow=block;endFill=1;strokeColor=none;strokeWidth=4;fontFamily=Helvetica;fontSize=36;fontColor=#FFB366;fillColor=#FFB366;opacity=100" parent="1" edge="1">
          <mxGeometry width="100" height="100" relative="1" as="geometry">
            <mxPoint x="347" y="283" as="sourcePoint" />
            <mxPoint x="427" y="283" as="targetPoint" />
          </mxGeometry>
        </mxCell>
        <mxCell id="2077" value="" style="arrow;html=1;endArrow=block;endFill=1;strokeColor=none;strokeWidth=4;fontFamily=Helvetica;fontSize=36;fontColor=#FFB366;fillColor=#FFB366;" parent="1" edge="1">
          <mxGeometry width="100" height="100" relative="1" as="geometry">
            <mxPoint x="527" y="360" as="sourcePoint" />
            <mxPoint x="607" y="360" as="targetPoint" />
          </mxGeometry>
        </mxCell>
        <mxCell id="2078" value="" style="arrow;html=1;endArrow=block;endFill=1;strokeColor=none;strokeWidth=4;fontFamily=Helvetica;fontSize=36;fontColor=#FFB366;fillColor=#FFB366;" parent="1" edge="1">
          <mxGeometry width="100" height="100" relative="1" as="geometry">
            <mxPoint x="714" y="426" as="sourcePoint" />
            <mxPoint x="794" y="426" as="targetPoint" />
          </mxGeometry>
        </mxCell>
        <mxCell id="2079" value="" style="arrow;html=1;endArrow=block;endFill=1;strokeColor=none;strokeWidth=4;fontFamily=Helvetica;fontSize=36;fontColor=#FFB366;fillColor=#FFB366;" parent="1" edge="1">
          <mxGeometry width="100" height="100" relative="1" as="geometry">
            <mxPoint x="714" y="270" as="sourcePoint" />
            <mxPoint x="794" y="270" as="targetPoint" />
          </mxGeometry>
        </mxCell>
        <mxCell id="2080" value="" style="arrow;html=1;endArrow=block;endFill=1;strokeColor=none;strokeWidth=4;fontFamily=Helvetica;fontSize=36;fontColor=#FFB366;fillColor=#FFB366;" parent="1" edge="1">
          <mxGeometry width="100" height="100" relative="1" as="geometry">
            <mxPoint x="900" y="438" as="sourcePoint" />
            <mxPoint x="980" y="438" as="targetPoint" />
          </mxGeometry>
        </mxCell>
        <mxCell id="2081" value="" style="arrow;html=1;endArrow=block;endFill=1;strokeColor=none;strokeWidth=4;fontFamily=Helvetica;fontSize=36;fontColor=#FFB366;fillColor=#FFB366;" parent="1" edge="1">
          <mxGeometry width="100" height="100" relative="1" as="geometry">
            <mxPoint x="894" y="664" as="sourcePoint" />
            <mxPoint x="974" y="664" as="targetPoint" />
          </mxGeometry>
        </mxCell>
        <mxCell id="2082" value="" style="arrow;html=1;endArrow=block;endFill=1;strokeColor=none;strokeWidth=4;fontFamily=Helvetica;fontSize=36;fontColor=#FFB366;fillColor=#FFB366;" parent="1" edge="1">
          <mxGeometry width="100" height="100" relative="1" as="geometry">
            <mxPoint x="707" y="639" as="sourcePoint" />
            <mxPoint x="787" y="639" as="targetPoint" />
          </mxGeometry>
        </mxCell>
        <mxCell id="2083" value="" style="arrow;html=1;endArrow=block;endFill=1;strokeColor=none;strokeWidth=4;fontFamily=Helvetica;fontSize=36;fontColor=#FFB366;fillColor=#FFB366;" parent="1" edge="1">
          <mxGeometry width="100" height="100" relative="1" as="geometry">
            <mxPoint x="534" y="624" as="sourcePoint" />
            <mxPoint x="614" y="624" as="targetPoint" />
          </mxGeometry>
        </mxCell>
        <mxCell id="2084" value="" style="arrow;html=1;endArrow=block;endFill=1;strokeColor=none;strokeWidth=4;fontFamily=Helvetica;fontSize=36;fontColor=#FFB366;fillColor=#FFB366;" parent="1" edge="1">
          <mxGeometry width="100" height="100" relative="1" as="geometry">
            <mxPoint x="347" y="536" as="sourcePoint" />
            <mxPoint x="427" y="536" as="targetPoint" />
          </mxGeometry>
        </mxCell>
        <mxCell id="2085" value="" style="arrow;html=1;endArrow=block;endFill=1;strokeColor=none;strokeWidth=4;fontFamily=Helvetica;fontSize=36;fontColor=#FFB366;fillColor=#FFB366;" parent="1" edge="1">
          <mxGeometry width="100" height="100" relative="1" as="geometry">
            <mxPoint x="174" y="688" as="sourcePoint" />
            <mxPoint x="254" y="688" as="targetPoint" />
          </mxGeometry>
        </mxCell>
        <mxCell id="_duB6upxRTLquSg8ViKz-2088" value="hdfs集群" style="outlineConnect=0;dashed=0;verticalLabelPosition=bottom;verticalAlign=top;align=center;html=1;shape=mxgraph.aws3.hdfs_cluster;fillColor=#F58534;gradientColor=none;" vertex="1" parent="1">
          <mxGeometry x="456" y="253" width="61.5" height="63" as="geometry" />
        </mxCell>
        <mxCell id="_duB6upxRTLquSg8ViKz-2089" value="" style="shape=image;html=1;verticalAlign=top;verticalLabelPosition=bottom;labelBackgroundColor=#ffffff;imageAspect=0;aspect=fixed;image=https://cdn2.iconfinder.com/data/icons/adobe-round-1/243/adobe-round-spark-128.png" vertex="1" parent="1">
          <mxGeometry x="449" y="513" width="62" height="62" as="geometry" />
        </mxCell>
      </root>
    </mxGraphModel>
  </diagram>
  <diagram id="pqALH5lwYp0z7k4Sg02K" name="Page-2">
    <mxGraphModel dx="1038" dy="1700" grid="1" gridSize="10" guides="1" tooltips="1" connect="1" arrows="1" fold="1" page="1" pageScale="1" pageWidth="827" pageHeight="1169" math="0" shadow="0">
      <root>
        <mxCell id="Wf0L1RP632IPY9QwrgxR-0" />
        <mxCell id="Wf0L1RP632IPY9QwrgxR-1" parent="Wf0L1RP632IPY9QwrgxR-0" />
        <mxCell id="Wf0L1RP632IPY9QwrgxR-12" value="" style="whiteSpace=wrap;html=1;fillColor=#f9f7ed;strokeColor=#36393d;noLabel=1;fontColor=none;" vertex="1" parent="Wf0L1RP632IPY9QwrgxR-1">
          <mxGeometry x="140" y="-100" width="540" height="680" as="geometry" />
        </mxCell>
        <mxCell id="Wf0L1RP632IPY9QwrgxR-13" value="" style="whiteSpace=wrap;html=1;fillColor=#eeeeee;strokeColor=#36393d;fontStyle=0" vertex="1" parent="Wf0L1RP632IPY9QwrgxR-1">
          <mxGeometry x="160" y="370" width="500" height="190" as="geometry" />
        </mxCell>
        <mxCell id="Wf0L1RP632IPY9QwrgxR-14" value="日志搜集&lt;br&gt;（Flume/Fluentd）" style="whiteSpace=wrap;html=1;" vertex="1" parent="Wf0L1RP632IPY9QwrgxR-1">
          <mxGeometry x="180" y="406" width="160" height="40" as="geometry" />
        </mxCell>
        <mxCell id="Wf0L1RP632IPY9QwrgxR-15" value="m-agent&lt;br&gt;（指标搜集代理）" style="whiteSpace=wrap;html=1;" vertex="1" parent="Wf0L1RP632IPY9QwrgxR-1">
          <mxGeometry x="357" y="406" width="160" height="40" as="geometry" />
        </mxCell>
        <mxCell id="Wf0L1RP632IPY9QwrgxR-16" value="API" style="whiteSpace=wrap;html=1;" vertex="1" parent="Wf0L1RP632IPY9QwrgxR-1">
          <mxGeometry x="534" y="406" width="100" height="40" as="geometry" />
        </mxCell>
        <mxCell id="Wf0L1RP632IPY9QwrgxR-23" style="edgeStyle=orthogonalEdgeStyle;rounded=0;orthogonalLoop=1;jettySize=auto;html=1;exitX=0.5;exitY=0;exitDx=0;exitDy=0;entryX=0.5;entryY=1;entryDx=0;entryDy=0;endArrow=none;endFill=0;" edge="1" parent="Wf0L1RP632IPY9QwrgxR-1" source="Wf0L1RP632IPY9QwrgxR-20" target="Wf0L1RP632IPY9QwrgxR-14">
          <mxGeometry relative="1" as="geometry">
            <mxPoint x="260" y="460" as="targetPoint" />
            <Array as="points">
              <mxPoint x="218" y="470" />
              <mxPoint x="260" y="470" />
            </Array>
          </mxGeometry>
        </mxCell>
        <mxCell id="Wf0L1RP632IPY9QwrgxR-20" value="应用日志" style="shape=image;html=1;verticalAlign=top;verticalLabelPosition=bottom;labelBackgroundColor=#ffffff;imageAspect=0;aspect=fixed;image=https://cdn0.iconfinder.com/data/icons/fatcow/32/file_extension_log.png" vertex="1" parent="Wf0L1RP632IPY9QwrgxR-1">
          <mxGeometry x="198" y="490" width="40" height="40" as="geometry" />
        </mxCell>
        <mxCell id="Wf0L1RP632IPY9QwrgxR-22" value="" style="shape=image;html=1;verticalAlign=top;verticalLabelPosition=bottom;labelBackgroundColor=#ffffff;imageAspect=0;aspect=fixed;image=https://cdn0.iconfinder.com/data/icons/fatcow/32/file_extension_log.png" vertex="1" parent="Wf0L1RP632IPY9QwrgxR-1">
          <mxGeometry x="280" y="490" width="40" height="40" as="geometry" />
        </mxCell>
        <mxCell id="Wf0L1RP632IPY9QwrgxR-25" style="edgeStyle=orthogonalEdgeStyle;rounded=0;orthogonalLoop=1;jettySize=auto;html=1;exitX=0.5;exitY=0;exitDx=0;exitDy=0;entryX=0.5;entryY=1;entryDx=0;entryDy=0;endArrow=none;endFill=0;" edge="1" parent="Wf0L1RP632IPY9QwrgxR-1" source="Wf0L1RP632IPY9QwrgxR-24" target="Wf0L1RP632IPY9QwrgxR-14">
          <mxGeometry relative="1" as="geometry">
            <Array as="points">
              <mxPoint x="300" y="470" />
              <mxPoint x="260" y="470" />
            </Array>
          </mxGeometry>
        </mxCell>
        <mxCell id="Wf0L1RP632IPY9QwrgxR-24" value="系统日志" style="shape=image;html=1;verticalAlign=top;verticalLabelPosition=bottom;labelBackgroundColor=#ffffff;imageAspect=0;aspect=fixed;image=https://cdn3.iconfinder.com/data/icons/document-file-formats-2/512/9-128.png" vertex="1" parent="Wf0L1RP632IPY9QwrgxR-1">
          <mxGeometry x="280" y="490" width="40" height="40" as="geometry" />
        </mxCell>
        <mxCell id="Wf0L1RP632IPY9QwrgxR-27" value="数据采集" style="text;html=1;resizable=0;autosize=1;align=center;verticalAlign=middle;points=[];fillColor=none;strokeColor=none;rounded=0;fontSize=14;fontStyle=1;fontColor=#9933FF;" vertex="1" parent="Wf0L1RP632IPY9QwrgxR-1">
          <mxGeometry x="587" y="378" width="70" height="20" as="geometry" />
        </mxCell>
        <mxCell id="Wf0L1RP632IPY9QwrgxR-34" style="edgeStyle=orthogonalEdgeStyle;rounded=0;orthogonalLoop=1;jettySize=auto;html=1;exitX=0.5;exitY=0;exitDx=0;exitDy=0;endArrow=none;endFill=0;fontSize=14;fontColor=#9933FF;" edge="1" parent="Wf0L1RP632IPY9QwrgxR-1" source="Wf0L1RP632IPY9QwrgxR-30" target="Wf0L1RP632IPY9QwrgxR-15">
          <mxGeometry relative="1" as="geometry" />
        </mxCell>
        <mxCell id="Wf0L1RP632IPY9QwrgxR-30" value="&lt;font style=&quot;font-size: 12px&quot; color=&quot;#000000&quot;&gt;应用指标&lt;/font&gt;" style="shape=image;html=1;verticalAlign=top;verticalLabelPosition=bottom;labelBackgroundColor=#ffffff;imageAspect=0;aspect=fixed;image=https://cdn1.iconfinder.com/data/icons/hawcons/32/699830-icon-68-document-file-app-128.png;fontSize=14;fontColor=#9933FF;" vertex="1" parent="Wf0L1RP632IPY9QwrgxR-1">
          <mxGeometry x="360" y="490" width="40" height="40" as="geometry" />
        </mxCell>
        <mxCell id="Wf0L1RP632IPY9QwrgxR-35" style="edgeStyle=orthogonalEdgeStyle;rounded=0;orthogonalLoop=1;jettySize=auto;html=1;exitX=0.5;exitY=0;exitDx=0;exitDy=0;entryX=0.5;entryY=1;entryDx=0;entryDy=0;endArrow=none;endFill=0;fontSize=14;fontColor=#9933FF;" edge="1" parent="Wf0L1RP632IPY9QwrgxR-1" source="Wf0L1RP632IPY9QwrgxR-31" target="Wf0L1RP632IPY9QwrgxR-15">
          <mxGeometry relative="1" as="geometry">
            <Array as="points">
              <mxPoint x="497" y="468" />
              <mxPoint x="437" y="468" />
            </Array>
          </mxGeometry>
        </mxCell>
        <mxCell id="Wf0L1RP632IPY9QwrgxR-31" value="&lt;font color=&quot;#000000&quot; style=&quot;font-size: 12px&quot;&gt;系统指标&lt;/font&gt;" style="shape=image;html=1;verticalAlign=top;verticalLabelPosition=bottom;labelBackgroundColor=#ffffff;imageAspect=0;aspect=fixed;image=https://cdn2.iconfinder.com/data/icons/system-flat-buttons/512/linux_tux-128.png;fontSize=14;fontColor=#9933FF;" vertex="1" parent="Wf0L1RP632IPY9QwrgxR-1">
          <mxGeometry x="477" y="489" width="40" height="40" as="geometry" />
        </mxCell>
        <mxCell id="Wf0L1RP632IPY9QwrgxR-36" style="edgeStyle=none;rounded=0;orthogonalLoop=1;jettySize=auto;html=1;endArrow=none;endFill=0;fontSize=14;fontColor=#9933FF;entryX=0.5;entryY=1;entryDx=0;entryDy=0;" edge="1" parent="Wf0L1RP632IPY9QwrgxR-1" source="Wf0L1RP632IPY9QwrgxR-32" target="Wf0L1RP632IPY9QwrgxR-15">
          <mxGeometry relative="1" as="geometry">
            <mxPoint x="438.83500000000004" y="460" as="targetPoint" />
          </mxGeometry>
        </mxCell>
        <mxCell id="Wf0L1RP632IPY9QwrgxR-32" value="集群指标" style="aspect=fixed;html=1;points=[];align=center;image;fontSize=12;image=img/lib/mscae/Kubernetes.svg;" vertex="1" parent="Wf0L1RP632IPY9QwrgxR-1">
          <mxGeometry x="417" y="492" width="41.67" height="40" as="geometry" />
        </mxCell>
        <mxCell id="Wf0L1RP632IPY9QwrgxR-40" style="edgeStyle=none;rounded=0;orthogonalLoop=1;jettySize=auto;html=1;exitX=0.5;exitY=0;exitDx=0;exitDy=0;entryX=0.5;entryY=1;entryDx=0;entryDy=0;endArrow=none;endFill=0;fontSize=14;fontColor=#000000;" edge="1" parent="Wf0L1RP632IPY9QwrgxR-1" source="Wf0L1RP632IPY9QwrgxR-37" target="Wf0L1RP632IPY9QwrgxR-16">
          <mxGeometry relative="1" as="geometry" />
        </mxCell>
        <mxCell id="Wf0L1RP632IPY9QwrgxR-37" value="3rd - data" style="whiteSpace=wrap;html=1;fontSize=14;" vertex="1" parent="Wf0L1RP632IPY9QwrgxR-1">
          <mxGeometry x="534" y="462" width="100" height="30" as="geometry" />
        </mxCell>
        <mxCell id="Wf0L1RP632IPY9QwrgxR-38" value="" style="html=1;verticalLabelPosition=bottom;align=center;labelBackgroundColor=#ffffff;verticalAlign=top;strokeWidth=2;strokeColor=#0080F0;shadow=0;dashed=0;shape=mxgraph.ios7.icons.data;fontSize=14;fontColor=#9933FF;" vertex="1" parent="Wf0L1RP632IPY9QwrgxR-1">
          <mxGeometry x="550" y="510" width="30" height="30" as="geometry" />
        </mxCell>
        <mxCell id="Wf0L1RP632IPY9QwrgxR-39" value="" style="verticalLabelPosition=bottom;html=1;verticalAlign=top;align=center;strokeColor=none;fillColor=#00BEF2;shape=mxgraph.azure.cloud_services_configuration_file;pointerEvents=1;fontSize=14;fontColor=#000000;" vertex="1" parent="Wf0L1RP632IPY9QwrgxR-1">
          <mxGeometry x="599" y="510" width="31" height="30" as="geometry" />
        </mxCell>
        <mxCell id="Wf0L1RP632IPY9QwrgxR-41" value="" style="whiteSpace=wrap;html=1;fontSize=14;fillColor=#fff2cc;strokeColor=#d6b656;" vertex="1" parent="Wf0L1RP632IPY9QwrgxR-1">
          <mxGeometry x="160" y="120" width="500" height="220" as="geometry" />
        </mxCell>
        <mxCell id="Wf0L1RP632IPY9QwrgxR-44" value="" style="whiteSpace=wrap;html=1;fontSize=14;fontColor=none;rounded=1;" vertex="1" parent="Wf0L1RP632IPY9QwrgxR-1">
          <mxGeometry x="190" y="290" width="210" height="40" as="geometry" />
        </mxCell>
        <mxCell id="Wf0L1RP632IPY9QwrgxR-47" value="" style="whiteSpace=wrap;html=1;fontSize=14;fontColor=none;rounded=1;" vertex="1" parent="Wf0L1RP632IPY9QwrgxR-1">
          <mxGeometry x="186" y="284" width="210" height="40" as="geometry" />
        </mxCell>
        <mxCell id="Wf0L1RP632IPY9QwrgxR-48" value="kafka" style="whiteSpace=wrap;html=1;fontSize=16;fontColor=none;rounded=1;" vertex="1" parent="Wf0L1RP632IPY9QwrgxR-1">
          <mxGeometry x="182" y="278" width="210" height="40" as="geometry" />
        </mxCell>
        <mxCell id="Wf0L1RP632IPY9QwrgxR-50" value="" style="whiteSpace=wrap;html=1;rounded=0;fontSize=14;fontColor=none;shadow=0;sketch=0;glass=0;" vertex="1" parent="Wf0L1RP632IPY9QwrgxR-1">
          <mxGeometry x="428" y="290" width="210" height="40" as="geometry" />
        </mxCell>
        <mxCell id="Wf0L1RP632IPY9QwrgxR-51" value="" style="whiteSpace=wrap;html=1;rounded=0;fontSize=14;fontColor=none;shadow=0;sketch=0;glass=0;" vertex="1" parent="Wf0L1RP632IPY9QwrgxR-1">
          <mxGeometry x="423" y="284" width="210" height="40" as="geometry" />
        </mxCell>
        <mxCell id="Wf0L1RP632IPY9QwrgxR-52" value="HDFS" style="whiteSpace=wrap;html=1;rounded=0;fontSize=14;fontColor=none;shadow=0;sketch=0;glass=0;" vertex="1" parent="Wf0L1RP632IPY9QwrgxR-1">
          <mxGeometry x="418" y="278" width="210" height="40" as="geometry" />
        </mxCell>
        <mxCell id="Wf0L1RP632IPY9QwrgxR-53" value="" style="whiteSpace=wrap;html=1;rounded=0;shadow=0;glass=0;sketch=0;fontSize=14;fontColor=none;dashed=1;" vertex="1" parent="Wf0L1RP632IPY9QwrgxR-1">
          <mxGeometry x="182" y="202" width="218" height="60" as="geometry" />
        </mxCell>
        <mxCell id="Wf0L1RP632IPY9QwrgxR-54" value="ETL" style="whiteSpace=wrap;html=1;rounded=0;shadow=0;glass=0;sketch=0;fontSize=14;fontColor=none;" vertex="1" parent="Wf0L1RP632IPY9QwrgxR-1">
          <mxGeometry x="192" y="215.75" width="70" height="32.5" as="geometry" />
        </mxCell>
        <mxCell id="Wf0L1RP632IPY9QwrgxR-55" value="&lt;font style=&quot;font-size: 8px&quot;&gt;数据聚合分析&lt;br style=&quot;font-size: 8px&quot;&gt;（Spark&amp;nbsp;streaming）&lt;/font&gt;" style="whiteSpace=wrap;html=1;rounded=0;shadow=0;glass=0;sketch=0;fontSize=12;fontColor=none;" vertex="1" parent="Wf0L1RP632IPY9QwrgxR-1">
          <mxGeometry x="280" y="215.75" width="110" height="32.5" as="geometry" />
        </mxCell>
        <mxCell id="Wf0L1RP632IPY9QwrgxR-58" value="" style="whiteSpace=wrap;html=1;rounded=0;shadow=0;glass=0;sketch=0;fontSize=14;fontColor=none;dashed=1;" vertex="1" parent="Wf0L1RP632IPY9QwrgxR-1">
          <mxGeometry x="417" y="202" width="218" height="60" as="geometry" />
        </mxCell>
        <mxCell id="Wf0L1RP632IPY9QwrgxR-59" value="&lt;span style=&quot;color: rgb(51 , 51 , 51) ; font-family: &amp;#34;microsoft yahei&amp;#34; , &amp;#34;helvetica neue&amp;#34; , &amp;#34;helvetica&amp;#34; , &amp;#34;arial&amp;#34; , &amp;#34;verdana&amp;#34; , sans-serif ; text-align: left ; background-color: rgb(255 , 255 , 255) ; font-size: 10px&quot;&gt;趋势预测&lt;/span&gt;" style="whiteSpace=wrap;html=1;rounded=0;shadow=0;glass=0;sketch=0;fontSize=10;fontColor=none;" vertex="1" parent="Wf0L1RP632IPY9QwrgxR-1">
          <mxGeometry x="428" y="215.75" width="32" height="32.5" as="geometry" />
        </mxCell>
        <mxCell id="Wf0L1RP632IPY9QwrgxR-60" value="告警" style="whiteSpace=wrap;html=1;rounded=0;shadow=0;glass=0;sketch=0;fontSize=12;fontColor=none;" vertex="1" parent="Wf0L1RP632IPY9QwrgxR-1">
          <mxGeometry x="182" y="160" width="452" height="34.25" as="geometry" />
        </mxCell>
        <mxCell id="Wf0L1RP632IPY9QwrgxR-61" value="故障检测" style="whiteSpace=wrap;html=1;rounded=0;shadow=0;glass=0;sketch=0;fontSize=10;fontColor=none;" vertex="1" parent="Wf0L1RP632IPY9QwrgxR-1">
          <mxGeometry x="466" y="215.75" width="30" height="32.5" as="geometry" />
        </mxCell>
        <mxCell id="Wf0L1RP632IPY9QwrgxR-62" value="根因分析" style="whiteSpace=wrap;html=1;rounded=0;shadow=0;glass=0;sketch=0;fontSize=11;fontColor=none;" vertex="1" parent="Wf0L1RP632IPY9QwrgxR-1">
          <mxGeometry x="501" y="215.75" width="32" height="32.5" as="geometry" />
        </mxCell>
        <mxCell id="Wf0L1RP632IPY9QwrgxR-63" value="机器学习" style="whiteSpace=wrap;html=1;rounded=0;shadow=0;glass=0;sketch=0;fontSize=14;fontColor=none;" vertex="1" parent="Wf0L1RP632IPY9QwrgxR-1">
          <mxGeometry x="552" y="215.75" width="75" height="32.5" as="geometry" />
        </mxCell>
        <mxCell id="Wf0L1RP632IPY9QwrgxR-64" value="数据分析" style="text;html=1;resizable=0;autosize=1;align=center;verticalAlign=middle;points=[];fillColor=none;strokeColor=none;rounded=0;fontSize=14;fontStyle=1;fontColor=#9933FF;" vertex="1" parent="Wf0L1RP632IPY9QwrgxR-1">
          <mxGeometry x="587" y="131" width="70" height="20" as="geometry" />
        </mxCell>
        <mxCell id="Wf0L1RP632IPY9QwrgxR-65" value="" style="whiteSpace=wrap;html=1;rounded=0;shadow=0;glass=0;sketch=0;fontSize=14;fontColor=none;" vertex="1" parent="Wf0L1RP632IPY9QwrgxR-1">
          <mxGeometry x="160" y="-80" width="500" height="171" as="geometry" />
        </mxCell>
        <mxCell id="Wf0L1RP632IPY9QwrgxR-81" value="" style="whiteSpace=wrap;html=1;rounded=0;shadow=0;glass=0;sketch=0;fontSize=14;fontColor=none;dashed=1;strokeColor=#6666FF;" vertex="1" parent="Wf0L1RP632IPY9QwrgxR-1">
          <mxGeometry x="182" y="7" width="452" height="74" as="geometry" />
        </mxCell>
        <mxCell id="Wf0L1RP632IPY9QwrgxR-84" value="Druid/Clickhouse" style="whiteSpace=wrap;html=1;rounded=0;fontSize=14;fontColor=none;shadow=0;sketch=0;glass=0;" vertex="1" parent="Wf0L1RP632IPY9QwrgxR-1">
          <mxGeometry x="199" y="30" width="118" height="40" as="geometry" />
        </mxCell>
        <mxCell id="Wf0L1RP632IPY9QwrgxR-85" value="kafka" style="whiteSpace=wrap;html=1;fontSize=16;fontColor=none;rounded=1;" vertex="1" parent="Wf0L1RP632IPY9QwrgxR-1">
          <mxGeometry x="348" y="29" width="138" height="40" as="geometry" />
        </mxCell>
        <mxCell id="Wf0L1RP632IPY9QwrgxR-86" value="kafka" style="whiteSpace=wrap;html=1;fontSize=16;fontColor=none;rounded=1;" vertex="1" parent="Wf0L1RP632IPY9QwrgxR-1">
          <mxGeometry x="344" y="24" width="138" height="40" as="geometry" />
        </mxCell>
        <mxCell id="Wf0L1RP632IPY9QwrgxR-87" value="Elasticsearch" style="whiteSpace=wrap;html=1;fontSize=16;fontColor=none;rounded=1;" vertex="1" parent="Wf0L1RP632IPY9QwrgxR-1">
          <mxGeometry x="340" y="19" width="138" height="40" as="geometry" />
        </mxCell>
        <mxCell id="Wf0L1RP632IPY9QwrgxR-88" value="&lt;br&gt;MySql" style="strokeWidth=2;html=1;shape=mxgraph.flowchart.database;whiteSpace=wrap;rounded=0;shadow=0;glass=0;sketch=0;fontSize=14;fontColor=none;" vertex="1" parent="Wf0L1RP632IPY9QwrgxR-1">
          <mxGeometry x="510" y="20" width="113" height="49" as="geometry" />
        </mxCell>
        <mxCell id="Wf0L1RP632IPY9QwrgxR-91" value="Druid/Clickhouse" style="whiteSpace=wrap;html=1;rounded=0;fontSize=14;fontColor=none;shadow=0;sketch=0;glass=0;" vertex="1" parent="Wf0L1RP632IPY9QwrgxR-1">
          <mxGeometry x="195" y="24.5" width="118" height="40" as="geometry" />
        </mxCell>
        <mxCell id="Wf0L1RP632IPY9QwrgxR-92" value="Druid/Clickhouse" style="whiteSpace=wrap;html=1;rounded=0;fontSize=14;fontColor=none;shadow=0;sketch=0;glass=0;" vertex="1" parent="Wf0L1RP632IPY9QwrgxR-1">
          <mxGeometry x="191" y="19" width="118" height="40" as="geometry" />
        </mxCell>
        <mxCell id="Wf0L1RP632IPY9QwrgxR-93" style="edgeStyle=none;rounded=0;orthogonalLoop=1;jettySize=auto;html=1;exitX=0.75;exitY=1;exitDx=0;exitDy=0;entryX=0.827;entryY=1.015;entryDx=0;entryDy=0;entryPerimeter=0;endArrow=none;endFill=0;fontSize=14;fontColor=none;" edge="1" parent="Wf0L1RP632IPY9QwrgxR-1">
          <mxGeometry relative="1" as="geometry">
            <mxPoint x="287.5" y="69" as="sourcePoint" />
            <mxPoint x="296.586" y="69.59999999999991" as="targetPoint" />
          </mxGeometry>
        </mxCell>
        <mxCell id="Wf0L1RP632IPY9QwrgxR-94" value="运维大屏" style="whiteSpace=wrap;html=1;rounded=0;shadow=0;glass=0;sketch=0;fontSize=14;fontColor=none;strokeColor=#99CCFF;" vertex="1" parent="Wf0L1RP632IPY9QwrgxR-1">
          <mxGeometry x="180" y="-69" width="110" height="60" as="geometry" />
        </mxCell>
        <mxCell id="Wf0L1RP632IPY9QwrgxR-95" value="告警中心" style="whiteSpace=wrap;html=1;rounded=0;shadow=0;glass=0;sketch=0;strokeColor=#6666FF;fontSize=14;fontColor=none;" vertex="1" parent="Wf0L1RP632IPY9QwrgxR-1">
          <mxGeometry x="317" y="-69" width="110" height="60" as="geometry" />
        </mxCell>
        <mxCell id="Wf0L1RP632IPY9QwrgxR-96" value="API" style="whiteSpace=wrap;html=1;rounded=0;shadow=0;glass=0;sketch=0;fontSize=14;fontColor=none;strokeColor=#FF3399;" vertex="1" parent="Wf0L1RP632IPY9QwrgxR-1">
          <mxGeometry x="454.67" y="-69" width="110" height="60" as="geometry" />
        </mxCell>
        <mxCell id="Wf0L1RP632IPY9QwrgxR-97" value="数据可视化" style="text;html=1;resizable=0;autosize=1;align=center;verticalAlign=middle;points=[];fillColor=none;strokeColor=none;rounded=0;fontSize=14;fontStyle=1;fontColor=#9933FF;" vertex="1" parent="Wf0L1RP632IPY9QwrgxR-1">
          <mxGeometry x="571" y="-69" width="90" height="20" as="geometry" />
        </mxCell>
      </root>
    </mxGraphModel>
  </diagram>
</mxfile>
